<?xml version="1.0" ?><!DOCTYPE svg  PUBLIC '-//W3C//DTD SVG 1.1//EN'  'http://www.w3.org/Graphics/SVG/1.1/DTD/svg11.dtd'><svg enable-background="new 0 0 48 48" height="48px" version="1.1" viewBox="0 0 48 48" width="48px" xml:space="preserve" xmlns="http://www.w3.org/2000/svg" xmlns:xlink="http://www.w3.org/1999/xlink"><g id="Layer_4"><path d="M47.052,25.281h-0.187H25.271l1.599-0.967c0.032-0.022,1.998-1.31,2.897-2.582   c0.111-0.181,0.191-0.379,0.286-0.57c0.745-1.24,1.178-2.689,1.178-4.241c0-4.558-3.697-8.254-8.255-8.254   c-1.158,0-2.25,0.256-3.248,0.689c-0.542,0.266-1.589,0.827-1.589,0.827l-4.506,2.742h0l-8.052,4.47h0.008   c-1.924,1.029-3.457,2.687-4.294,4.722L1.29,22.103c0,0-1.714,3.323-0.999,7.399c0.005,0.031,0.013,0.062,0.018,0.096   c0.035,0.188,0.069,0.377,0.115,0.57c0.001-0.004,0.003-0.006,0.005-0.01c0.152,0.641,0.367,1.275,0.663,1.895   c0,0,0.113,0.229,0.312,0.576c0.067,0.117,0.135,0.234,0.207,0.35c0.454,0.746,1.222,1.793,2.206,2.709   c0.518,0.451,1.649,1.391,2.683,1.916c1.682,0.82,4.349,1.662,8.222,1.719v0.01h0.104h0.289h7.924h12.513h0.194l11.123-12.77   l0.002-0.006l0.185-0.21v-0.021l0.832-1.045H47.052z M35.345,36.828H14.823v0.012c-1.292-0.008-4.168-0.16-6.856-1.248   C7.762,35.498,7.558,35.4,7.37,35.295c-0.01-0.006-0.019-0.012-0.028-0.018c-0.257-0.146-0.498-0.303-0.721-0.473   c0,0.002,0,0.004-0.001,0.008c-0.058-0.045-0.124-0.086-0.179-0.133c-0.014-0.01-0.016-0.016-0.028-0.027   c-0.097-0.07-0.196-0.139-0.291-0.213c-0.225-0.176-0.429-0.352-0.623-0.529c-0.008-0.006-0.017-0.014-0.024-0.021   C3.888,32.43,3.293,31,3.293,31c-0.329-0.688-0.533-1.402-0.625-2.119c0-0.002-0.001-0.002-0.002-0.002   c0-0.004,0-0.008-0.001-0.014c-0.033-0.256-0.052-0.512-0.056-0.768c-0.206-3.324,1.125-5.486,1.125-5.486l0.006,0.005   c1.145-2.32,3.524-3.922,6.287-3.922c3.587,0,6.541,2.691,6.967,6.163c0.015,0.253,0.043,1.088-0.185,1.62   c-0.278,0.728-0.816,1.808-1.723,2.444c-0.071,0.057-0.148,0.115-0.243,0.176c-0.032,0.02-0.065,0.029-0.098,0.051   c-0.01,0.006-0.018,0.014-0.028,0.02c-0.011,0.006-0.023,0.008-0.035,0.012c-1.74,1.018-3.505,0.383-3.505,0.383l0.001-0.006   c-0.38-0.086-0.738-0.23-1.054-0.439c-0.037-0.025-0.073-0.055-0.109-0.08c-0.797-0.576-1.321-1.509-1.321-2.565   c0-1.19,0.662-2.212,1.63-2.753l-0.005-0.009c0,0,0.821-0.608,1.827-0.236c0.012,0.003,0.017,0.008,0.029,0.013   c0.015,0.006,0.027,0.012,0.042,0.02c0.218,0.091,0.342,0.18,0.395,0.266c0.334,0.293,0.557,0.71,0.557,1.19   c0,0.497-0.242,0.919-0.601,1.208c-0.299,0.212-0.507,0.543-0.507,0.937c0,0.645,0.523,1.168,1.167,1.168   c0.356,0,0.659-0.172,0.869-0.426l0.004,0.003c0,0,0.41-0.479,0.58-0.704c0.013-0.02,0.027-0.036,0.041-0.055   c0.007-0.01,0.022-0.029,0.027-0.037c0.002-0.003-0.001-0.007,0-0.012c0.406-0.596,0.654-1.305,0.654-2.083   c0-2.116-1.716-3.833-3.832-3.833c-0.133,0-0.258,0.033-0.387,0.048v-0.004c-0.012,0.001-0.024,0.006-0.037,0.007   c-0.262,0.032-0.513,0.086-0.755,0.168c-2.242,0.641-3.891,2.673-3.891,5.12c0,2.104,1.221,3.902,2.981,4.783l-0.01,0.018   c0,0,0.078,0.033,0.196,0.082c0.08,0.037,0.159,0.068,0.24,0.102c0.356,0.146,0.834,0.334,1.037,0.381c0,0,2.95,0.877,6.348-1.354   l0.001,0.008l0.252-0.17c0.003-0.004,0.006-0.006,0.009-0.006l1.644-1.109l2.766-1.793h21.449L35.345,36.828z" fill="#241F20"/></g></svg>