<?xml version="1.0" encoding="UTF-8"?>
<svg id="Layer_2" data-name="Layer 2" xmlns="http://www.w3.org/2000/svg" viewBox="0 0 350 84.35">
  <defs>
    <style>
      .cls-1 {
        fill: #e38c85;
      }
    </style>
  </defs>
  <g id="Layer_1-2" data-name="Layer 1">
    <g>
      <path class="cls-1" d="M52.65,45.7c0,5.73-2.42,10.44-7.27,14.12-4.84,3.68-10.11,5.52-15.79,5.52-4.99,0-9.92-1.58-14.79-4.74-4.87-3.16-7.69-4.73-8.44-4.73-1.91,0-3.1.73-3.57,2.17-.46,1.45-.9,3.88-1.31,7.3H0v-31.1h1.48c.35,1.22.94,3.21,1.78,5.99.84,2.78,2.4,6.1,4.69,9.95,2.29,3.85,5.3,7.05,9.03,9.6,3.74,2.55,8.06,3.82,12.99,3.82,2.84,0,5.15-.75,6.95-2.26,1.79-1.5,2.69-3.3,2.69-5.39,0-2.49-.67-4.46-2-5.91-1.33-1.45-3.74-2.85-7.21-4.21-3.47-1.36-7.15-2.82-11.03-4.39-3.88-1.56-7.99-3.68-12.34-6.34-4.34-2.61-6.52-7.53-6.52-14.77,0-5.68,2.29-10.48,6.86-14.42C11.96,1.97,17.23,0,23.2,0c3.3,0,6.52.78,9.64,2.35l9.03,5.04c1.68,0,2.78-.71,3.3-2.13.52-1.42.78-3.17.78-5.26h1.65v23.02h-1.56c-.29-.98-.88-2.66-1.78-5.04-.9-2.37-2.63-5.04-5.2-7.99s-5.11-5.08-7.62-6.38c-2.51-1.3-5.53-1.96-9.05-1.96-2.37,0-4.56.7-6.59,2.09-2.02,1.39-3.03,3.13-3.03,5.21,0,2.2.77,4.04,2.3,5.52,1.53,1.48,3.3,2.65,5.3,3.52,2,.87,4.76,1.97,8.3,3.3,3.53,1.33,7.2,2.88,10.99,4.65,3.79,1.77,6.91,4.34,9.34,7.73s3.65,7.4,3.65,12.03Z"/>
      <path class="cls-1" d="M99.2,51.26c-1.63,4.34-4.24,7.75-7.84,10.21-3.6,2.46-7.83,3.69-12.71,3.69-6.85,0-12.48-1.9-16.89-5.69-4.41-3.79-6.61-9.05-6.61-15.77,0-6.25,2.28-11.39,6.83-15.42,4.56-4.02,10.02-6.04,16.41-6.04s11.78,1.88,15.32,5.65,5.31,8.37,5.31,13.81h-26.67c0,2.09.16,4.21.47,6.39s.92,4.27,1.81,6.3c.89,2.03,2.16,3.66,3.8,4.91,1.64,1.25,3.69,1.87,6.17,1.87,3.55,0,6.37-1,8.43-3,2.07-2,3.66-4.5,4.76-7.52l1.4.61ZM83.83,39.96c-.06-.64-.1-1.39-.13-2.26s-.04-1.97-.04-3.3c0-3.53-.43-6.21-1.29-8.04-.86-1.82-2.36-2.74-4.48-2.74-1.84,0-3.12.88-3.84,2.65-.72,1.77-1.22,4.48-1.51,8.12l-.17,5.56h11.47Z"/>
      <path class="cls-1" d="M98.33,64.29v-1.39l2.35-.09c1.68-.17,2.69-.58,3.04-1.22.35-.64.52-2.03.52-4.17l.09-4v-20.76l-.09-3.56c-.12-1.39-.29-2.43-.52-3.13-.23-.69-1.27-1.13-3.13-1.3l-2.26-.17v-1.39h22.59v7.3c.4-1.04,1.25-2.61,2.56-4.69,1.31-2.09,4.34-3.13,9.08-3.13,2.78,0,5.14.97,7.08,2.91,1.94,1.94,2.91,4.24,2.91,6.91s-.91,4.88-2.74,6.65c-1.82,1.77-4.07,2.65-6.73,2.65-2.2,0-4.1-.77-5.69-2.3-1.59-1.53-2.39-3.29-2.39-5.26,0-1.45.26-2.78.78-4,.58-1.1,1.16-2.23,1.74-3.39-.29-.4-.58-.61-.87-.61-1.5,0-2.8.9-3.9,2.69-1.1,1.8-1.66,3.47-1.66,5.04v20.07l.09,4.34c0,1.62.2,2.72.6,3.3.4.58,1.4.96,3,1.13l2.57.17v1.39h-29.02Z"/>
      <path class="cls-1" d="M187.63,51.26c-1.63,4.34-4.24,7.75-7.84,10.21-3.6,2.46-7.83,3.69-12.71,3.69-6.85,0-12.48-1.9-16.89-5.69-4.41-3.79-6.61-9.05-6.61-15.77,0-6.25,2.28-11.39,6.83-15.42,4.56-4.02,10.02-6.04,16.41-6.04s11.78,1.88,15.32,5.65c3.54,3.76,5.31,8.37,5.31,13.81h-26.67c0,2.09.16,4.21.47,6.39s.92,4.27,1.81,6.3c.89,2.03,2.16,3.66,3.8,4.91,1.64,1.25,3.69,1.87,6.17,1.87,3.55,0,6.37-1,8.43-3,2.07-2,3.66-4.5,4.76-7.52l1.4.61ZM172.26,39.96c-.06-.64-.1-1.39-.13-2.26s-.04-1.97-.04-3.3c0-3.53-.43-6.21-1.29-8.04-.86-1.82-2.36-2.74-4.48-2.74-1.84,0-3.12.88-3.84,2.65-.72,1.77-1.22,4.48-1.51,8.12l-.17,5.56h11.47Z"/>
      <path class="cls-1" d="M219.78,35.71l-.09-3.56c0-4.52-1.58-6.78-4.74-6.78-2.01,0-3.43.64-4.27,1.91-.83,1.28-1.51,2.58-2.02,3.91v22.24l.09,4c0,2.38.21,3.88.65,4.52.43.64,1.71.96,3.84.96v1.39h-27.07v-1.39l2.09-.09c1.68-.17,2.69-.58,3.04-1.22.35-.64.52-2.03.52-4.17l.09-4v-20.76l-.09-3.56c-.12-1.39-.29-2.43-.52-3.13-.23-.69-1.27-1.13-3.13-1.3l-2-.17v-1.39h22.15v6.52c.64-1.62,1.78-3.26,3.43-4.91,1.65-1.65,4.85-2.48,9.6-2.48,4.11,0,7.67,1.16,10.68,3.47,3.01,2.32,4.52,5.04,4.52,8.17v19.55l.09,4c0,2.09.17,3.46.52,4.13.35.67,1.36,1.09,3.04,1.26l1.91.09v1.39h-26.9v-1.39c2.07,0,3.33-.33,3.79-1,.46-.67.69-2.16.69-4.47l.09-4v-17.72Z"/>
      <path class="cls-1" d="M270.43,64.29h-28.24v-1.39l2.09-.09c1.68-.17,2.7-.58,3.04-1.22.35-.64.52-2.03.52-4.17l.09-4v-20.76l-.09-3.56c-.12-1.39-.29-2.43-.52-3.13-.23-.69-1.28-1.13-3.13-1.3l-2.35-.17v-1.39h22.85v30.32l.09,4c0,2.09.17,3.46.52,4.13.35.67,1.36,1.09,3.04,1.26l2.09.09v1.39ZM247.67,8.6c0-2.26.83-4.18,2.49-5.78,1.66-1.59,3.65-2.39,5.98-2.39s4.41.77,6.07,2.3c1.66,1.54,2.49,3.49,2.49,5.86s-.83,4.27-2.49,5.86c-1.66,1.59-3.68,2.39-6.07,2.39s-4.32-.8-5.98-2.39c-1.66-1.59-2.49-3.55-2.49-5.86Z"/>
      <path class="cls-1" d="M274.07,26.41h-5.91v-2.35c1.97-.52,4.03-1.49,6.18-2.91s4.2-3.07,6.15-4.95c1.95-1.88,3.58-3.72,4.89-5.52,1.31-1.8,2.31-3.42,3.01-4.87h2.44v17.29h11.3l8.27,3.3h-19.57v23.63l.17,4.43c0,2.49.55,4.37,1.64,5.65,1.09,1.27,2.47,1.91,4.14,1.91,2.24,0,3.88-.94,4.92-2.82,1.03-1.88,1.55-3.98,1.55-6.3h1.22c0,3.24-.95,6.1-2.85,8.56-1.9,2.46-5.99,3.69-12.27,3.69-4.02,0-7.57-1.04-10.66-3.13-3.09-2.08-4.63-5.01-4.63-8.77v-26.84Z"/>
      <path class="cls-1" d="M308.65,29.02c-.69-1.45-1.28-2.48-1.74-3.08-.46-.61-1.07-1-1.82-1.17l-3.39-.26v-1.39h28.41v1.39h-1.3c-.46,0-1.06.07-1.78.22-.73.15-1.09.74-1.09,1.78,0,.46.12,1.06.35,1.78.23.73.46,1.43.69,2.13l6.78,16.16c.58-1.39,1.5-3.66,2.78-6.82,1.27-3.16,2.29-5.83,3.04-8.04.75-2.2,1.13-3.79,1.13-4.78,0-.75-.13-1.27-.39-1.56-.26-.29-.97-.52-2.13-.7l-2.78-.17v-1.39h14.59v1.39c-.35,0-.71.02-1.09.04-.38.03-1.07.13-2.09.3-1.01.17-1.87.7-2.57,1.56-.7.87-1.99,3.71-3.87,8.51-1.89,4.81-3.92,9.9-6.09,15.29-2.18,5.39-4.61,10.98-7.31,16.77-2.7,5.79-5.22,10.14-7.57,13.03-2.35,2.9-5.5,4.34-9.44,4.34-2.32,0-4.45-.78-6.4-2.35-1.94-1.56-2.92-3.59-2.92-6.08,0-2.32.79-4.29,2.35-5.91,1.57-1.62,3.57-2.43,6.02-2.43s4.45.72,5.84,2.17c1.4,1.45,2.09,3.16,2.09,5.13s-.55,3.56-1.64,4.78c-1.09,1.22-1.64,1.94-1.64,2.17.52-.06,1.06-.12,1.64-.17,1.26-.58,2.49-1.68,3.66-3.3,1.18-1.62,2.23-3.3,3.15-5.04.92-1.74,1.9-3.79,2.93-6.17-1.28-3.01-2.85-6.73-4.74-11.16-1.88-4.43-3.97-9.31-6.25-14.64-2.29-5.33-4.1-9.44-5.43-12.34Z"/>
    </g>
  </g>
</svg>